<?xml version="1.0" encoding="utf-8"?>
<!-- Generator: Adobe Illustrator 25.1.0, SVG Export Plug-In . SVG Version: 6.00 Build 0)  -->
<svg version="1.1" id="레이어_1" xmlns="http://www.w3.org/2000/svg" xmlns:xlink="http://www.w3.org/1999/xlink" x="0px"
	 y="0px" viewBox="0 0 1920 1080" style="enable-background:new 0 0 1920 1080;" xml:space="preserve">
<style type="text/css">
	.st0{fill:#FFFFFF;}
</style>
<g>
	<path class="st0" d="M960,926.5c-9.1,0-16.4-7.3-16.5-16.4c5.5,0.3,11,0.4,16.5,0.4c5.5,0,11-0.1,16.5-0.4
		C976.4,919.2,969.1,926.5,960,926.5z M977.5,909.1c-0.5-9.2-8.2-16.6-17.5-16.6c-9.3,0-17,7.4-17.5,16.6
		c-55.6-2.8-110.3-19.1-158.1-47.2c-46.5-27.4-86.6-65.8-116-111.1c5.1-3.2,8.1-8.7,8.1-14.7c0-9.6-7.9-17.5-17.5-17.5
		c-2.8,0-5.6,0.7-8,2c-25.2-49.2-38-102.3-38-158c0-55.6,12.8-108.8,38-158c2.5,1.3,5.2,2,8,2c9.6,0,17.5-7.9,17.5-17.5
		c0-6-3-11.5-8.1-14.7c29.3-45.4,69.4-83.8,116-111.1c47.9-28.1,102.5-44.4,158.1-47.2c0.5,9.2,8.2,16.6,17.5,16.6
		c9.3,0,17-7.4,17.5-16.6c55.6,2.8,110.3,19.1,158.1,47.2c46.5,27.4,86.6,65.8,116,111.1c-5.1,3.2-8.1,8.7-8.1,14.7
		c0,9.6,7.9,17.5,17.5,17.5c2.8,0,5.6-0.7,8-2c25.2,49.2,38,102.3,38,158c0,55.6-12.8,108.8-38,158c-2.5-1.3-5.2-2-8-2
		c-9.6,0-17.5,7.9-17.5,17.5c0,6,3,11.5,8.1,14.7c-29.3,45.4-69.4,83.8-116,111.1C1087.7,890,1033.1,906.3,977.5,909.1z M1261,752.5
		c-2.8,0-5.6-0.7-8-2.1c5.9-9.2,11.5-18.8,16.5-28.6c5,3,8,8.4,8,14.2C1277.5,745.1,1270.1,752.5,1261,752.5z M659,752.5
		c-9.1,0-16.5-7.4-16.5-16.5c0-5.8,3.1-11.2,8-14.2c5,9.7,10.6,19.3,16.5,28.6C664.6,751.8,661.8,752.5,659,752.5z M1269.5,403.2
		c-5-9.7-10.6-19.3-16.5-28.6c2.4-1.4,5.2-2.1,8-2.1c9.1,0,16.5,7.4,16.5,16.5C1277.5,394.8,1274.4,400.2,1269.5,403.2z
		 M650.5,403.2c-5-3-8-8.4-8-14.2c0-9.1,7.4-16.5,16.5-16.5c2.8,0,5.6,0.7,8,2.1C661.1,383.8,655.6,393.4,650.5,403.2z M976.5,214.9
		c-5.5-0.3-11-0.4-16.5-0.4c-5.5,0-11,0.1-16.5,0.4c0.1-9,7.4-16.4,16.5-16.4C969.1,198.5,976.4,205.8,976.5,214.9z"/>
	<path d="M960,199c8.6,0,15.7,6.8,16,15.4c-5.3-0.2-10.7-0.4-16-0.4s-10.7,0.1-16,0.4C944.3,205.8,951.4,199,960,199 M977.9,216.5
		c27.9,1.4,55.6,6.2,82.2,14.2c26.2,7.9,51.5,19,75.2,32.9c46.3,27.2,86.3,65.4,115.5,110.6c-4.9,3.3-7.9,8.9-7.9,14.9
		c0,9.9,8.1,18,18,18c2.7,0,5.4-0.6,7.8-1.8c12.1,23.7,21.4,48.8,27.7,74.6c6.6,26.9,9.9,54.7,9.9,82.7s-3.3,55.8-9.9,82.7
		c-6.3,25.8-15.7,50.9-27.7,74.6c-2.4-1.2-5.1-1.8-7.8-1.8c-9.9,0-18,8.1-18,18c0,5.9,3,11.5,7.9,14.9
		c-29.3,45.1-69.2,83.3-115.5,110.6c-23.7,13.9-48.9,25-75.2,32.9c-26.6,8-54.3,12.8-82.2,14.2c-0.8-9.2-8.6-16.5-17.9-16.5
		s-17.2,7.3-17.9,16.5c-27.9-1.4-55.6-6.2-82.2-14.2c-26.2-7.9-51.5-19-75.2-32.9c-46.3-27.2-86.3-65.4-115.5-110.6
		c4.9-3.3,7.9-8.9,7.9-14.9c0-9.9-8.1-18-18-18c-2.7,0-5.4,0.6-7.8,1.8c-12.1-23.7-21.4-48.8-27.7-74.6c-6.6-26.9-9.9-54.7-9.9-82.7
		s3.3-55.8,9.9-82.7c6.3-25.8,15.7-50.9,27.7-74.6c2.4,1.2,5.1,1.8,7.8,1.8c9.9,0,18-8.1,18-18c0-5.9-3-11.5-7.9-14.9
		c29.3-45.1,69.2-83.3,115.5-110.6c23.7-13.9,48.9-25,75.2-32.9c26.6-8,54.3-12.8,82.2-14.2c0.8,9.2,8.6,16.5,17.9,16.5
		S977.2,225.7,977.9,216.5 M1261,373c8.8,0,16,7.2,16,16c0,5.5-2.8,10.5-7.3,13.5c-4.9-9.4-10.3-18.7-16-27.7
		C1255.9,373.6,1258.4,373,1261,373 M659,373c2.6,0,5.1,0.6,7.3,1.8c-5.7,9-11.1,18.3-16,27.7c-4.6-2.9-7.3-8-7.3-13.5
		C643,380.2,650.2,373,659,373 M1269.7,722.5c4.6,2.9,7.3,8,7.3,13.5c0,8.8-7.2,16-16,16c-2.6,0-5.1-0.6-7.3-1.8
		C1259.4,741.3,1264.8,732,1269.7,722.5 M650.3,722.5c4.9,9.4,10.3,18.7,16,27.7c-2.3,1.2-4.8,1.8-7.3,1.8c-8.8,0-16-7.2-16-16
		C643,730.5,645.8,725.5,650.3,722.5 M976,910.6c-0.3,8.5-7.4,15.4-16,15.4s-15.7-6.8-16-15.4c5.3,0.2,10.7,0.4,16,0.4
		S970.7,910.9,976,910.6 M960,198c-9.4,0-17,7.6-17,17c0,0.1,0,0.3,0,0.4c5.6-0.3,11.3-0.4,17-0.4s11.4,0.1,17,0.4
		c0-0.1,0-0.3,0-0.4C977,205.6,969.4,198,960,198L960,198z M977,215.4c-0.2,9.2-7.7,16.6-17,16.6s-16.8-7.4-17-16.6
		c-115.5,5.6-216.3,67.5-275.3,159c4.9,3,8.3,8.4,8.3,14.6c0,9.4-7.6,17-17,17c-3,0-5.8-0.8-8.3-2.1
		c-24.4,47.6-38.2,101.5-38.2,158.6s13.8,111.1,38.2,158.6c2.4-1.4,5.3-2.1,8.3-2.1c9.4,0,17,7.6,17,17c0,6.2-3.3,11.6-8.3,14.6
		c59,91.5,159.7,153.5,275.3,159c0.2-9.2,7.7-16.6,17-16.6s16.8,7.4,17,16.6c115.5-5.6,216.3-67.5,275.3-159
		c-4.9-3-8.3-8.4-8.3-14.6c0-9.4,7.6-17,17-17c3,0,5.8,0.8,8.3,2.1c24.4-47.6,38.2-101.5,38.2-158.6s-13.8-111.1-38.2-158.6
		c-2.4,1.4-5.3,2.1-8.3,2.1c-9.4,0-17-7.6-17-17c0-6.2,3.3-11.6,8.3-14.6C1193.3,283,1092.5,221,977,215.4L977,215.4z M1261,372
		c-3.2,0-6.2,0.9-8.7,2.4c6.1,9.5,11.8,19.3,17,29.4c5.2-2.9,8.7-8.5,8.7-14.9C1278,379.6,1270.4,372,1261,372L1261,372z M659,372
		c-9.4,0-17,7.6-17,17c0,6.4,3.5,12,8.7,14.9c5.2-10.1,10.9-19.9,17-29.4C665.2,372.9,662.2,372,659,372L659,372z M1269.3,721.1
		c-5.2,10.1-10.9,19.9-17,29.4c2.6,1.5,5.5,2.4,8.7,2.4c9.4,0,17-7.6,17-17C1278,729.6,1274.5,724,1269.3,721.1L1269.3,721.1z
		 M650.7,721.1c-5.2,2.9-8.7,8.5-8.7,14.9c0,9.4,7.6,17,17,17c3.2,0,6.2-0.9,8.7-2.4C661.6,741.1,655.9,731.2,650.7,721.1
		L650.7,721.1z M977,909.6c-5.6,0.3-11.3,0.4-17,0.4s-11.4-0.1-17-0.4c0,0.1,0,0.3,0,0.4c0,9.4,7.6,17,17,17s17-7.6,17-17
		C977,909.9,977,909.7,977,909.6L977,909.6z"/>
</g>
</svg>
